<svg xmlns="http://www.w3.org/2000/svg" width="25" height="25" viewBox="0 0 25 25"><defs><style>.a{fill:#e9b142;}.b{fill:#fff;}</style></defs><g transform="translate(-0.421 -0.421)"><g transform="translate(0.421 0.421)"><rect class="a" width="25" height="25" rx="12.5"/><path class="b" d="M3.915-8.742v4.793A12.661,12.661,0,0,1,3.823-2.42Q3.73-1.662,3.58-.874H1.82q-.151-.788-.243-1.546a12.661,12.661,0,0,1-.092-1.529V-8.742ZM1.2,2.15a1.391,1.391,0,0,1,.113-.561,1.419,1.419,0,0,1,.31-.452A1.484,1.484,0,0,1,2.675.718a1.472,1.472,0,0,1,.578.113,1.531,1.531,0,0,1,.469.306A1.386,1.386,0,0,1,4.149,2.15a1.42,1.42,0,0,1-.113.566,1.375,1.375,0,0,1-.314.457,1.471,1.471,0,0,1-.469.3,1.521,1.521,0,0,1-.578.109,1.544,1.544,0,0,1-.587-.109,1.422,1.422,0,0,1-.465-.3A1.424,1.424,0,0,1,1.2,2.15Z" transform="translate(9.724 15.376)"/></g></g></svg>