<svg xmlns="http://www.w3.org/2000/svg" width="18" height="18" viewBox="0 0 18 18"><defs><style>.a{fill:none;}.b{fill:#cccccc;}</style></defs><g transform="translate(-1090.025 -1306)"><rect class="a" width="18" height="18" transform="translate(1090.025 1306)"/><path class="b" d="M.741,10.738a1.111,1.111,0,0,0,1.111,1.111H8.517a1.111,1.111,0,0,0,1.111-1.111V2.962H.741ZM7.036,4.814a.37.37,0,1,1,.741,0V10a.37.37,0,1,1-.741,0Zm-2.222,0a.37.37,0,1,1,.741,0V10a.37.37,0,1,1-.741,0Zm-2.222,0a.37.37,0,0,1,.741,0V10a.37.37,0,1,1-.741,0ZM10,.741H7.221L7,.308A.555.555,0,0,0,6.506,0H3.86a.549.549,0,0,0-.5.308L3.147.741H.37a.37.37,0,0,0-.37.37v.741a.37.37,0,0,0,.37.37H10a.37.37,0,0,0,.37-.37V1.111A.37.37,0,0,0,10,.741Z" transform="translate(1093.555 1309.075)"/></g></svg>