<svg xmlns="http://www.w3.org/2000/svg" viewBox="0 0 18 18">
  <g id="zameen_dropdown_inventory_list" transform="translate(-0.001)">
    <rect id="Rectangle_6380" data-name="Rectangle 6380"  transform="translate(0.001)" fill="none"/>
    <path id="Path_1386" data-name="Path 1386" d="M14.465,5.48V3.012h-3.45L8.291,1.06,1,6.321V9.8l1.122-.837v5.962H4.591a1.394,1.394,0,0,1,.1-1.194L7.552,8.727l-2.64.679A1.3,1.3,0,0,1,4.287,6.89L9.88,5.5h.172a1.27,1.27,0,0,1,.128,0,1.375,1.375,0,0,1,.233,0h.026a1.2,1.2,0,0,1,.172.04,1.271,1.271,0,0,1,.352.137,1.4,1.4,0,0,1,.51,1.921L8.74,12.314l2.931-.749a1.3,1.3,0,1,1,.629,2.512l-3.318.85h5.483V8.965l1.135.842V6.321Z" transform="translate(0.776 1.078)" fill="#00a651" fill-rule="evenodd"/>
  </g>
</svg>
