<svg xmlns="http://www.w3.org/2000/svg" viewBox="0 0 130 24.762"><defs><style>.a{fill:#fff;}.b{fill:#231f20;}.c{fill:#f37a20;}.d{fill:#00a651;fill-rule:evenodd;}</style></defs><rect class="a" width="17.531" height="16.412" transform="translate(3.599 7.205)"/><path class="b" d="M137.619,18.576V13.686c0-1.307-.418-2.061-1.322-2.061a1.359,1.359,0,0,0-1.284.978,2.285,2.285,0,0,0-.112.747v5.227h-2.725v-5c0-1.135-.4-1.911-1.284-1.911a1.426,1.426,0,0,0-1.307,1.015,1.881,1.881,0,0,0-.112.694V18.6h-2.718V12.454c0-1.12-.037-2.076-.075-2.867h2.352l.127,1.21h.06a3.106,3.106,0,0,1,2.718-1.411,2.539,2.539,0,0,1,2.464,1.493h0a4.077,4.077,0,0,1,1.2-1.038,3.256,3.256,0,0,1,1.7-.455c1.725,0,3.031,1.21,3.031,3.9v5.294Zm-17.263-7.205c-1.344,0-1.844,1.374-1.844,2.7,0,1.546.65,2.7,1.844,2.7,1.083,0,1.785-1.083,1.785-2.7C122.141,12.73,121.625,11.371,120.356,11.371Zm-.075,7.429a4.405,4.405,0,0,1-4.652-4.629,4.49,4.49,0,0,1,4.8-4.764A4.368,4.368,0,0,1,125.023,14a4.48,4.48,0,0,1-4.741,4.8Zm-6.123-6.989a3.733,3.733,0,0,0-1.561-.276,2.33,2.33,0,0,0-2.412,2.516,2.345,2.345,0,0,0,2.479,2.509,4.368,4.368,0,0,0,1.605-.276l.329,2.061a6.892,6.892,0,0,1-2.5.4c-2.9,0-4.764-1.77-4.764-4.6,0-2.628,1.8-4.779,5.152-4.779a6.436,6.436,0,0,1,2.135.351Zm-9.707,6.966a1.605,1.605,0,0,1-1.635-1.687,1.613,1.613,0,0,1,1.65-1.71,1.59,1.59,0,0,1,1.643,1.71A1.605,1.605,0,0,1,104.5,18.8Zm-6.474-.2v-5c0-1.157-.4-1.949-1.419-1.949a1.493,1.493,0,0,0-1.411,1.045,1.9,1.9,0,0,0-.112.7v5.2H92.245V12.454c0-1.12,0-2.076-.075-2.867H94.6l.127,1.232h.052a3.315,3.315,0,0,1,2.778-1.434c1.844,0,3.226,1.21,3.226,3.86v5.331ZM86.4,11.244a1.829,1.829,0,0,0-1.732,1.814h3.36a1.613,1.613,0,0,0-1.575-1.814Zm4.077,3.733H84.681c.1,1.165,1.232,1.71,2.539,1.71a7.952,7.952,0,0,0,2.486-.366l.366,1.9a8.9,8.9,0,0,1-3.255.553c-3,.03-4.764-1.777-4.764-4.584a4.506,4.506,0,0,1,4.547-4.8c2.9,0,4.01,2.24,4.01,4.48a6.362,6.362,0,0,1-.082,1.105ZM76.684,11.244a1.822,1.822,0,0,0-1.725,1.814h3.36a1.62,1.62,0,0,0-1.583-1.814Zm4.084,3.733H75.027c.09,1.165,1.232,1.71,2.539,1.71a7.952,7.952,0,0,0,2.486-.366l.366,1.9a8.96,8.96,0,0,1-3.255.553c-3.054.03-4.816-1.777-4.816-4.584a4.5,4.5,0,0,1,4.54-4.8c2.912,0,4.01,2.24,4.01,4.48a6.546,6.546,0,0,1-.075,1.105Zm-12.835,3.6V13.686c0-1.307-.426-2.061-1.329-2.061a1.366,1.366,0,0,0-1.284.978,2.285,2.285,0,0,0-.112.747v5.227H62.49v-5c0-1.135-.411-1.911-1.292-1.911a1.426,1.426,0,0,0-1.307,1.015,1.875,1.875,0,0,0-.1.694V18.6H57.062V12.454c0-1.12-.037-2.076-.075-2.867h2.352l.134,1.21h.052a3.128,3.128,0,0,1,2.725-1.411,2.554,2.554,0,0,1,2.464,1.493h0A3.957,3.957,0,0,1,65.91,9.84,3.255,3.255,0,0,1,67.62,9.4c1.725,0,3.031,1.21,3.031,3.9v5.279Zm-15.8-4.256c-1.493,0-2.613.336-2.613,1.419a1.008,1.008,0,0,0,1.105,1.068,1.538,1.538,0,0,0,1.493-1.03,1.993,1.993,0,0,0,.052-.478Zm.329,4.248-.164-.9h-.052A3.226,3.226,0,0,1,49.67,18.8a2.755,2.755,0,0,1-2.9-2.755c0-2.337,2.1-3.457,5.279-3.442v-.149c0-.478-.261-1.157-1.635-1.157a5.077,5.077,0,0,0-2.486.679l-.515-1.8A7.414,7.414,0,0,1,50.9,9.385c2.987,0,3.957,1.762,3.957,3.875v3.128a14.187,14.187,0,0,0,.127,2.188Zm-6.638-2.24v2.24H38v-1.59l2.83-3.547c.53-.6.9-1.053,1.449-1.605v-.037H38.321v-2.2h7.362v1.673l-2.7,3.4a18.815,18.815,0,0,1-1.493,1.65h0Z" transform="translate(-10.337 -3.113)"/><path class="c" d="M140.292,30.572h-.956V26.413h.956Zm-.993-4.8V24.86h1.023v.911Zm-2.068,3.039a2.68,2.68,0,0,0-.956-.164c-.6,0-.956.239-.956.665h0c0,.4.358.62.806.62.635,0,1.105-.358,1.105-.874Zm0,1.762v-.508a1.7,1.7,0,0,1-1.351.6,1.329,1.329,0,0,1-1.493-1.284h0c0-.9.747-1.344,1.687-1.344a3.659,3.659,0,0,1,1.15.172v-.1c0-.582-.366-.9-1.023-.9a2.92,2.92,0,0,0-1.195.261l-.261-.747a3.532,3.532,0,0,1,1.59-.351,1.613,1.613,0,0,1,1.829,1.762V30.6Zm-4.823,0V28.25h-2.636v2.322h-.963V25.054h.963v2.292h2.636V25.054h.971v5.518Zm-8.131-1.762a2.65,2.65,0,0,0-.956-.164c-.6,0-.948.239-.948.665h0c0,.4.351.62.8.62.635,0,1.105-.358,1.105-.874Zm0,1.762v-.508a1.7,1.7,0,0,1-1.351.6,1.329,1.329,0,0,1-1.493-1.284h0c0-.9.747-1.344,1.687-1.344a3.629,3.629,0,0,1,1.15.172v-.1c0-.582-.358-.9-1.023-.9a2.987,2.987,0,0,0-1.195.261l-.261-.747a3.554,3.554,0,0,1,1.59-.351,1.605,1.605,0,0,1,1.829,1.762V30.6ZM119.639,27.2V29.25c0,.373.187.523.508.523a1.232,1.232,0,0,0,.59-.142v.747a1.643,1.643,0,0,1-.859.217,1.068,1.068,0,0,1-1.195-1.225V27.2h-.53v-.791h.53v-1.15h.956v1.15h1.12V27.2Zm-3.166,1.583a2.71,2.71,0,0,0-.956-.164c-.6,0-.956.239-.956.665h0c0,.4.358.62.806.62.627,0,1.105-.358,1.105-.874Zm0,1.762v-.508a1.687,1.687,0,0,1-1.344.6,1.337,1.337,0,0,1-1.493-1.284h0c0-.9.747-1.344,1.687-1.344a3.733,3.733,0,0,1,1.157.172v-.1c0-.582-.366-.9-1.03-.9a2.889,2.889,0,0,0-1.187.261L114,26.7a3.494,3.494,0,0,1,1.583-.351,1.605,1.605,0,0,1,1.829,1.762v2.464Zm-5.518-4.637h-1.127v2.038h1.127c.747,0,1.187-.4,1.187-.993a1.082,1.082,0,0,0-1.217-1.023Zm0,2.867h-1.1v1.77h-.971v-5.5h2.173a1.862,1.862,0,0,1,2.1,1.852,2.032,2.032,0,0,1-2.262,1.9Zm-6.645,1.77V28.205c0-.642-.321-1.015-.889-1.015a.933.933,0,0,0-.941,1.038v2.345h-1.015V26.413h.956v.642a1.493,1.493,0,0,1,1.3-.747,1.426,1.426,0,0,1,1.478,1.643V30.6Zm-4.024,0H99.33V26.413h.956Zm-1.06-4.779V24.86h1.023v.911ZM97.158,28.81a2.71,2.71,0,0,0-.956-.164c-.6,0-.956.239-.956.665h0c0,.4.351.62.806.62.627,0,1.105-.358,1.105-.874Zm0,1.762v-.508a1.687,1.687,0,0,1-1.344.6,1.337,1.337,0,0,1-1.493-1.284h0c0-.9.747-1.344,1.687-1.344a3.629,3.629,0,0,1,1.15.172v-.1c0-.582-.358-.9-1.023-.9a2.89,2.89,0,0,0-1.187.261l-.261-.747a3.494,3.494,0,0,1,1.583-.351A1.605,1.605,0,0,1,98.1,28.138V30.6Zm-4.652,0V28.205c0-.657-.306-1.015-.844-1.015s-.889.366-.889,1.038v2.345h-.956V28.2c0-.642-.314-1.008-.844-1.008s-.889.4-.889,1.045v2.337H87.13V26.413h.956v.627a1.493,1.493,0,0,1,1.269-.747,1.314,1.314,0,0,1,1.239.747,1.7,1.7,0,0,1,1.411-.747,1.4,1.4,0,0,1,1.493,1.59v2.658Zm-7.526,0V29.93a1.493,1.493,0,0,1-1.3.747,1.426,1.426,0,0,1-1.493-1.6V26.413h.956V28.78c0,.642.321,1.015.9,1.015a.926.926,0,0,0,.933-1.038V26.413h.956v4.159Zm-5.01,0V28.25H77.319v2.322h-.971V25.054h.971v2.292h2.628V25.054h.971v5.518Zm-8.445,1.15-.1-.4c.485-.1.709-.343.672-.747h-.4V29.5h1.053v.911a1.15,1.15,0,0,1-1.217,1.314ZM69.7,28.81a2.71,2.71,0,0,0-.956-.164c-.6,0-.956.239-.956.665h0c0,.4.351.62.806.62.627,0,1.105-.358,1.105-.874Zm0,1.762v-.508a1.687,1.687,0,0,1-1.344.6,1.337,1.337,0,0,1-1.493-1.284h0c0-.9.747-1.344,1.687-1.344a3.629,3.629,0,0,1,1.15.172v-.1c0-.582-.358-.9-1.023-.9a2.89,2.89,0,0,0-1.187.261l-.261-.747a3.494,3.494,0,0,1,1.583-.351,1.605,1.605,0,0,1,1.829,1.762V30.6ZM65.051,27.2V29.25c0,.373.187.523.508.523a1.277,1.277,0,0,0,.6-.142v.747a1.68,1.68,0,0,1-.859.217,1.068,1.068,0,0,1-1.165-1.15V27.2H63.6v-.791h.53v-1.15h.956v1.15h1.12V27.2ZM61.893,28.81a2.68,2.68,0,0,0-.956-.164c-.6,0-.956.239-.956.665h0c0,.4.358.62.806.62.627,0,1.105-.358,1.105-.874Zm0,1.762v-.508a1.7,1.7,0,0,1-1.351.6,1.337,1.337,0,0,1-1.493-1.284h0c0-.9.747-1.344,1.695-1.344a3.733,3.733,0,0,1,1.15.172v-.1c0-.582-.366-.9-1.03-.9a2.912,2.912,0,0,0-1.187.261l-.261-.747A3.517,3.517,0,0,1,61,26.376a1.605,1.605,0,0,1,1.829,1.762V30.6Zm-5.525-4.637H55.21v2.016h1.127c.747,0,1.195-.4,1.195-.993a1.061,1.061,0,0,0-1.195-1.023Zm0,2.867H55.21v1.77H54.24V25.054h2.18a1.866,1.866,0,0,1,2.1,1.852,1.955,1.955,0,0,1-2.21,1.9Zm-5.421-1.493c-.836,0-1.419.545-1.419,1.65v1.583H48.513V26.413h.956v.933a1.493,1.493,0,0,1,1.493-1.015v1.008ZM46.519,28.8a2.681,2.681,0,0,0-.956-.164c-.6,0-.956.239-.956.665h0c0,.4.358.62.806.62.635,0,1.105-.358,1.105-.874Zm0,1.762v-.508a1.7,1.7,0,0,1-1.351.6,1.329,1.329,0,0,1-1.493-1.284h0c0-.9.747-1.344,1.687-1.344a3.659,3.659,0,0,1,1.15.172v-.1c0-.582-.366-.9-1.023-.9a2.919,2.919,0,0,0-1.195.261l-.261-.747a3.517,3.517,0,0,1,1.583-.351,1.613,1.613,0,0,1,1.837,1.762v2.464Zm-4.823,0V28.25H38.978v2.322H38V25.054h.963v2.292H41.6V25.054h.971v5.518Z" transform="translate(-10.337 -6.963)"/><path class="d" d="M23.848,8.589v-4.2H17.994L13.372,1.06,1,10.023v5.93l1.9-1.426V24.684H7.093a2.384,2.384,0,0,1,.164-2.034l4.861-8.528-4.48,1.156a2.208,2.208,0,0,1-1.06-4.286l9.49-2.372h.291a2.146,2.146,0,0,1,.217,0,2.325,2.325,0,0,1,.4,0h.045a2.037,2.037,0,0,1,.291.068,2.151,2.151,0,0,1,.6.233,2.394,2.394,0,0,1,.866,3.273l-4.637,8.04,4.973-1.276a2.187,2.187,0,0,1,2.165.568,2.211,2.211,0,0,1-1.1,3.711l-5.63,1.449h9.3V14.527l1.926,1.434V10.023Z" transform="translate(-1 -1.06)"/></svg>